<?xml version="1.0" encoding="UTF-8" standalone="no"?>
<!DOCTYPE svg PUBLIC "-//W3C//DTD SVG 1.1//EN"
 "http://www.w3.org/Graphics/SVG/1.1/DTD/svg11.dtd">
<!-- Generated by graphviz version 2.40.1 (20161225.0304)
 -->
<!-- Title: snakemake_dag Pages: 1 -->
<svg width="239pt" height="620pt"
 viewBox="0.00 0.00 239.15 620.00" xmlns="http://www.w3.org/2000/svg" xmlns:xlink="http://www.w3.org/1999/xlink">
<g id="graph0" class="graph" transform="scale(1 1) rotate(0) translate(4 616)">
<title>snakemake_dag</title>
<polygon fill="#ffffff" stroke="transparent" points="-4,4 -4,-616 235.1523,-616 235.1523,4 -4,4"/>
<!-- 0 -->
<g id="node1" class="node">
<title>0</title>
<path fill="none" stroke="#d88d56" stroke-width="2" stroke-dasharray="5,2" d="M130.5762,-36C130.5762,-36 100.5762,-36 100.5762,-36 94.5762,-36 88.5762,-30 88.5762,-24 88.5762,-24 88.5762,-12 88.5762,-12 88.5762,-6 94.5762,0 100.5762,0 100.5762,0 130.5762,0 130.5762,0 136.5762,0 142.5762,-6 142.5762,-12 142.5762,-12 142.5762,-24 142.5762,-24 142.5762,-30 136.5762,-36 130.5762,-36"/>
<text text-anchor="middle" x="115.5762" y="-15" font-family="sans" font-size="10.00" fill="#000000">all</text>
</g>
<!-- 1 -->
<g id="node2" class="node">
<title>1</title>
<path fill="none" stroke="#bed856" stroke-width="2" stroke-dasharray="5,2" d="M137.2615,-108C137.2615,-108 93.8909,-108 93.8909,-108 87.8909,-108 81.8909,-102 81.8909,-96 81.8909,-96 81.8909,-84 81.8909,-84 81.8909,-78 87.8909,-72 93.8909,-72 93.8909,-72 137.2615,-72 137.2615,-72 143.2615,-72 149.2615,-78 149.2615,-84 149.2615,-84 149.2615,-96 149.2615,-96 149.2615,-102 143.2615,-108 137.2615,-108"/>
<text text-anchor="middle" x="115.5762" y="-87" font-family="sans" font-size="10.00" fill="#000000">countmatrix</text>
</g>
<!-- 1&#45;&gt;0 -->
<g id="edge1" class="edge">
<title>1&#45;&gt;0</title>
<path fill="none" stroke="#c0c0c0" stroke-width="2" d="M115.5762,-71.8314C115.5762,-64.131 115.5762,-54.9743 115.5762,-46.4166"/>
<polygon fill="#c0c0c0" stroke="#c0c0c0" stroke-width="2" points="119.0763,-46.4132 115.5762,-36.4133 112.0763,-46.4133 119.0763,-46.4132"/>
</g>
<!-- 2 -->
<g id="node3" class="node">
<title>2</title>
<path fill="none" stroke="#56c1d8" stroke-width="2" stroke-dasharray="5,2" d="M144.7238,-252C144.7238,-252 86.4286,-252 86.4286,-252 80.4286,-252 74.4286,-246 74.4286,-240 74.4286,-240 74.4286,-228 74.4286,-228 74.4286,-222 80.4286,-216 86.4286,-216 86.4286,-216 144.7238,-216 144.7238,-216 150.7238,-216 156.7238,-222 156.7238,-228 156.7238,-228 156.7238,-240 156.7238,-240 156.7238,-246 150.7238,-252 144.7238,-252"/>
<text text-anchor="middle" x="115.5762" y="-231" font-family="sans" font-size="10.00" fill="#000000">peakformatting</text>
</g>
<!-- 2&#45;&gt;1 -->
<g id="edge2" class="edge">
<title>2&#45;&gt;1</title>
<path fill="none" stroke="#c0c0c0" stroke-width="2" d="M115.5762,-215.7623C115.5762,-191.201 115.5762,-147.2474 115.5762,-118.3541"/>
<polygon fill="#c0c0c0" stroke="#c0c0c0" stroke-width="2" points="119.0763,-118.0896 115.5762,-108.0896 112.0763,-118.0897 119.0763,-118.0896"/>
</g>
<!-- 3 -->
<g id="node4" class="node">
<title>3</title>
<path fill="none" stroke="#56d88a" stroke-width="2" stroke-dasharray="5,2" d="M219.2286,-180C219.2286,-180 155.9237,-180 155.9237,-180 149.9237,-180 143.9237,-174 143.9237,-168 143.9237,-168 143.9237,-156 143.9237,-156 143.9237,-150 149.9237,-144 155.9237,-144 155.9237,-144 219.2286,-144 219.2286,-144 225.2286,-144 231.2286,-150 231.2286,-156 231.2286,-156 231.2286,-168 231.2286,-168 231.2286,-174 225.2286,-180 219.2286,-180"/>
<text text-anchor="middle" x="187.5762" y="-159" font-family="sans" font-size="10.00" fill="#000000">countpersample</text>
</g>
<!-- 2&#45;&gt;3 -->
<g id="edge6" class="edge">
<title>2&#45;&gt;3</title>
<path fill="none" stroke="#c0c0c0" stroke-width="2" d="M133.7448,-215.8314C142.2914,-207.2848 152.6319,-196.9443 161.9563,-187.6198"/>
<polygon fill="#c0c0c0" stroke="#c0c0c0" stroke-width="2" points="164.5667,-189.9592 169.1629,-180.4133 159.6169,-185.0095 164.5667,-189.9592"/>
</g>
<!-- 4 -->
<g id="node5" class="node">
<title>4</title>
<path fill="none" stroke="#56d88a" stroke-width="2" stroke-dasharray="5,2" d="M75.2286,-180C75.2286,-180 11.9237,-180 11.9237,-180 5.9237,-180 -.0763,-174 -.0763,-168 -.0763,-168 -.0763,-156 -.0763,-156 -.0763,-150 5.9237,-144 11.9237,-144 11.9237,-144 75.2286,-144 75.2286,-144 81.2286,-144 87.2286,-150 87.2286,-156 87.2286,-156 87.2286,-168 87.2286,-168 87.2286,-174 81.2286,-180 75.2286,-180"/>
<text text-anchor="middle" x="43.5762" y="-159" font-family="sans" font-size="10.00" fill="#000000">countpersample</text>
</g>
<!-- 2&#45;&gt;4 -->
<g id="edge8" class="edge">
<title>2&#45;&gt;4</title>
<path fill="none" stroke="#c0c0c0" stroke-width="2" d="M97.4075,-215.8314C88.8609,-207.2848 78.5205,-196.9443 69.196,-187.6198"/>
<polygon fill="#c0c0c0" stroke="#c0c0c0" stroke-width="2" points="71.5354,-185.0095 61.9894,-180.4133 66.5857,-189.9592 71.5354,-185.0095"/>
</g>
<!-- 3&#45;&gt;1 -->
<g id="edge3" class="edge">
<title>3&#45;&gt;1</title>
<path fill="none" stroke="#c0c0c0" stroke-width="2" d="M169.4075,-143.8314C160.8609,-135.2848 150.5205,-124.9443 141.196,-115.6198"/>
<polygon fill="#c0c0c0" stroke="#c0c0c0" stroke-width="2" points="143.5354,-113.0095 133.9894,-108.4133 138.5857,-117.9592 143.5354,-113.0095"/>
</g>
<!-- 4&#45;&gt;1 -->
<g id="edge4" class="edge">
<title>4&#45;&gt;1</title>
<path fill="none" stroke="#c0c0c0" stroke-width="2" d="M61.7448,-143.8314C70.2914,-135.2848 80.6319,-124.9443 89.9563,-115.6198"/>
<polygon fill="#c0c0c0" stroke="#c0c0c0" stroke-width="2" points="92.5667,-117.9592 97.1629,-108.4133 87.6169,-113.0095 92.5667,-117.9592"/>
</g>
<!-- 5 -->
<g id="node6" class="node">
<title>5</title>
<path fill="none" stroke="#d8bc56" stroke-width="2" stroke-dasharray="5,2" d="M136.6104,-324C136.6104,-324 94.542,-324 94.542,-324 88.542,-324 82.542,-318 82.542,-312 82.542,-312 82.542,-300 82.542,-300 82.542,-294 88.542,-288 94.542,-288 94.542,-288 136.6104,-288 136.6104,-288 142.6104,-288 148.6104,-294 148.6104,-300 148.6104,-300 148.6104,-312 148.6104,-312 148.6104,-318 142.6104,-324 136.6104,-324"/>
<text text-anchor="middle" x="115.5762" y="-303" font-family="sans" font-size="10.00" fill="#000000">peakcalling</text>
</g>
<!-- 5&#45;&gt;2 -->
<g id="edge5" class="edge">
<title>5&#45;&gt;2</title>
<path fill="none" stroke="#c0c0c0" stroke-width="2" d="M115.5762,-287.8314C115.5762,-280.131 115.5762,-270.9743 115.5762,-262.4166"/>
<polygon fill="#c0c0c0" stroke="#c0c0c0" stroke-width="2" points="119.0763,-262.4132 115.5762,-252.4133 112.0763,-262.4133 119.0763,-262.4132"/>
</g>
<!-- 6 -->
<g id="node7" class="node">
<title>6</title>
<path fill="none" stroke="#56d8c1" stroke-width="2" stroke-dasharray="5,2" d="M196.2762,-468C196.2762,-468 162.8762,-468 162.8762,-468 156.8762,-468 150.8762,-462 150.8762,-456 150.8762,-456 150.8762,-444 150.8762,-444 150.8762,-438 156.8762,-432 162.8762,-432 162.8762,-432 196.2762,-432 196.2762,-432 202.2762,-432 208.2762,-438 208.2762,-444 208.2762,-444 208.2762,-456 208.2762,-456 208.2762,-462 202.2762,-468 196.2762,-468"/>
<text text-anchor="middle" x="179.5762" y="-447" font-family="sans" font-size="10.00" fill="#000000">bam2bed</text>
</g>
<!-- 6&#45;&gt;3 -->
<g id="edge7" class="edge">
<title>6&#45;&gt;3</title>
<path fill="none" stroke="#c0c0c0" stroke-width="2" d="M180.0766,-431.9843C181.4291,-383.2939 185.1652,-248.7961 186.7968,-190.0573"/>
<polygon fill="#c0c0c0" stroke="#c0c0c0" stroke-width="2" points="190.2968,-190.1022 187.0759,-180.0089 183.2995,-189.9078 190.2968,-190.1022"/>
</g>
<!-- 8 -->
<g id="node9" class="node">
<title>8</title>
<path fill="none" stroke="#59d856" stroke-width="2" stroke-dasharray="5,2" d="M130.5762,-396C130.5762,-396 100.5762,-396 100.5762,-396 94.5762,-396 88.5762,-390 88.5762,-384 88.5762,-384 88.5762,-372 88.5762,-372 88.5762,-366 94.5762,-360 100.5762,-360 100.5762,-360 130.5762,-360 130.5762,-360 136.5762,-360 142.5762,-366 142.5762,-372 142.5762,-372 142.5762,-384 142.5762,-384 142.5762,-390 136.5762,-396 130.5762,-396"/>
<text text-anchor="middle" x="115.5762" y="-375" font-family="sans" font-size="10.00" fill="#000000">poolbed</text>
</g>
<!-- 6&#45;&gt;8 -->
<g id="edge13" class="edge">
<title>6&#45;&gt;8</title>
<path fill="none" stroke="#c0c0c0" stroke-width="2" d="M163.4263,-431.8314C155.9045,-423.3694 146.8196,-413.1489 138.5958,-403.8971"/>
<polygon fill="#c0c0c0" stroke="#c0c0c0" stroke-width="2" points="141.2031,-401.5621 131.9435,-396.4133 135.9713,-406.2127 141.2031,-401.5621"/>
</g>
<!-- 7 -->
<g id="node8" class="node">
<title>7</title>
<path fill="none" stroke="#56d8c1" stroke-width="2" stroke-dasharray="5,2" d="M72.2762,-468C72.2762,-468 38.8762,-468 38.8762,-468 32.8762,-468 26.8762,-462 26.8762,-456 26.8762,-456 26.8762,-444 26.8762,-444 26.8762,-438 32.8762,-432 38.8762,-432 38.8762,-432 72.2762,-432 72.2762,-432 78.2762,-432 84.2762,-438 84.2762,-444 84.2762,-444 84.2762,-456 84.2762,-456 84.2762,-462 78.2762,-468 72.2762,-468"/>
<text text-anchor="middle" x="55.5762" y="-447" font-family="sans" font-size="10.00" fill="#000000">bam2bed</text>
</g>
<!-- 7&#45;&gt;4 -->
<g id="edge9" class="edge">
<title>7&#45;&gt;4</title>
<path fill="none" stroke="#c0c0c0" stroke-width="2" d="M54.8255,-431.9843C52.7968,-383.2939 47.1927,-248.7961 44.7452,-190.0573"/>
<polygon fill="#c0c0c0" stroke="#c0c0c0" stroke-width="2" points="48.2399,-189.8545 44.3265,-180.0089 41.246,-190.146 48.2399,-189.8545"/>
</g>
<!-- 7&#45;&gt;8 -->
<g id="edge14" class="edge">
<title>7&#45;&gt;8</title>
<path fill="none" stroke="#c0c0c0" stroke-width="2" d="M70.7167,-431.8314C77.6978,-423.454 86.1152,-413.3531 93.7637,-404.1749"/>
<polygon fill="#c0c0c0" stroke="#c0c0c0" stroke-width="2" points="96.5187,-406.3362 100.2318,-396.4133 91.1411,-401.8548 96.5187,-406.3362"/>
</g>
<!-- 8&#45;&gt;5 -->
<g id="edge10" class="edge">
<title>8&#45;&gt;5</title>
<path fill="none" stroke="#c0c0c0" stroke-width="2" d="M115.5762,-359.8314C115.5762,-352.131 115.5762,-342.9743 115.5762,-334.4166"/>
<polygon fill="#c0c0c0" stroke="#c0c0c0" stroke-width="2" points="119.0763,-334.4132 115.5762,-324.4133 112.0763,-334.4133 119.0763,-334.4132"/>
</g>
<!-- 9 -->
<g id="node10" class="node">
<title>9</title>
<path fill="none" stroke="#568ad8" stroke-width="2" stroke-dasharray="5,2" d="M217.5117,-540C217.5117,-540 141.6406,-540 141.6406,-540 135.6406,-540 129.6406,-534 129.6406,-528 129.6406,-528 129.6406,-516 129.6406,-516 129.6406,-510 135.6406,-504 141.6406,-504 141.6406,-504 217.5117,-504 217.5117,-504 223.5117,-504 229.5117,-510 229.5117,-516 229.5117,-516 229.5117,-528 229.5117,-528 229.5117,-534 223.5117,-540 217.5117,-540"/>
<text text-anchor="middle" x="179.5762" y="-519" font-family="sans" font-size="10.00" fill="#000000">remove_duplicates</text>
</g>
<!-- 9&#45;&gt;6 -->
<g id="edge11" class="edge">
<title>9&#45;&gt;6</title>
<path fill="none" stroke="#c0c0c0" stroke-width="2" d="M179.5762,-503.8314C179.5762,-496.131 179.5762,-486.9743 179.5762,-478.4166"/>
<polygon fill="#c0c0c0" stroke="#c0c0c0" stroke-width="2" points="183.0763,-478.4132 179.5762,-468.4133 176.0763,-478.4133 183.0763,-478.4132"/>
</g>
<!-- 10 -->
<g id="node11" class="node">
<title>10</title>
<path fill="none" stroke="#568ad8" stroke-width="2" stroke-dasharray="5,2" d="M93.5117,-540C93.5117,-540 17.6406,-540 17.6406,-540 11.6406,-540 5.6406,-534 5.6406,-528 5.6406,-528 5.6406,-516 5.6406,-516 5.6406,-510 11.6406,-504 17.6406,-504 17.6406,-504 93.5117,-504 93.5117,-504 99.5117,-504 105.5117,-510 105.5117,-516 105.5117,-516 105.5117,-528 105.5117,-528 105.5117,-534 99.5117,-540 93.5117,-540"/>
<text text-anchor="middle" x="55.5762" y="-519" font-family="sans" font-size="10.00" fill="#000000">remove_duplicates</text>
</g>
<!-- 10&#45;&gt;7 -->
<g id="edge12" class="edge">
<title>10&#45;&gt;7</title>
<path fill="none" stroke="#c0c0c0" stroke-width="2" d="M55.5762,-503.8314C55.5762,-496.131 55.5762,-486.9743 55.5762,-478.4166"/>
<polygon fill="#c0c0c0" stroke="#c0c0c0" stroke-width="2" points="59.0763,-478.4132 55.5762,-468.4133 52.0763,-478.4133 59.0763,-478.4132"/>
</g>
<!-- 11 -->
<g id="node12" class="node">
<title>11</title>
<path fill="none" stroke="#d85656" stroke-width="2" stroke-dasharray="5,2" d="M212.4971,-612C212.4971,-612 146.6552,-612 146.6552,-612 140.6552,-612 134.6552,-606 134.6552,-600 134.6552,-600 134.6552,-588 134.6552,-588 134.6552,-582 140.6552,-576 146.6552,-576 146.6552,-576 212.4971,-576 212.4971,-576 218.4971,-576 224.4971,-582 224.4971,-588 224.4971,-588 224.4971,-600 224.4971,-600 224.4971,-606 218.4971,-612 212.4971,-612"/>
<text text-anchor="middle" x="179.5762" y="-596" font-family="sans" font-size="10.00" fill="#000000">align_bam_sort</text>
<text text-anchor="middle" x="179.5762" y="-586" font-family="sans" font-size="10.00" fill="#000000">samples: DN_02</text>
</g>
<!-- 11&#45;&gt;9 -->
<g id="edge15" class="edge">
<title>11&#45;&gt;9</title>
<path fill="none" stroke="#c0c0c0" stroke-width="2" d="M179.5762,-575.8314C179.5762,-568.131 179.5762,-558.9743 179.5762,-550.4166"/>
<polygon fill="#c0c0c0" stroke="#c0c0c0" stroke-width="2" points="183.0763,-550.4132 179.5762,-540.4133 176.0763,-550.4133 183.0763,-550.4132"/>
</g>
<!-- 12 -->
<g id="node13" class="node">
<title>12</title>
<path fill="none" stroke="#d85656" stroke-width="2" stroke-dasharray="5,2" d="M88.4971,-612C88.4971,-612 22.6552,-612 22.6552,-612 16.6552,-612 10.6552,-606 10.6552,-600 10.6552,-600 10.6552,-588 10.6552,-588 10.6552,-582 16.6552,-576 22.6552,-576 22.6552,-576 88.4971,-576 88.4971,-576 94.4971,-576 100.4971,-582 100.4971,-588 100.4971,-588 100.4971,-600 100.4971,-600 100.4971,-606 94.4971,-612 88.4971,-612"/>
<text text-anchor="middle" x="55.5762" y="-596" font-family="sans" font-size="10.00" fill="#000000">align_bam_sort</text>
<text text-anchor="middle" x="55.5762" y="-586" font-family="sans" font-size="10.00" fill="#000000">samples: DN_01</text>
</g>
<!-- 12&#45;&gt;10 -->
<g id="edge16" class="edge">
<title>12&#45;&gt;10</title>
<path fill="none" stroke="#c0c0c0" stroke-width="2" d="M55.5762,-575.8314C55.5762,-568.131 55.5762,-558.9743 55.5762,-550.4166"/>
<polygon fill="#c0c0c0" stroke="#c0c0c0" stroke-width="2" points="59.0763,-550.4132 55.5762,-540.4133 52.0763,-550.4133 59.0763,-550.4132"/>
</g>
</g>
</svg>
