<?xml version="1.0" encoding="UTF-8" standalone="no"?>
<!DOCTYPE svg PUBLIC "-//W3C//DTD SVG 1.1//EN"
 "http://www.w3.org/Graphics/SVG/1.1/DTD/svg11.dtd">
<!-- Generated by graphviz version 2.40.1 (20161225.0304)
 -->
<!-- Title: snakemake_dag Pages: 1 -->
<svg width="298pt" height="620pt"
 viewBox="0.00 0.00 297.69 620.00" xmlns="http://www.w3.org/2000/svg" xmlns:xlink="http://www.w3.org/1999/xlink">
<g id="graph0" class="graph" transform="scale(1 1) rotate(0) translate(4 616)">
<title>snakemake_dag</title>
<polygon fill="#ffffff" stroke="transparent" points="-4,4 -4,-616 293.6875,-616 293.6875,4 -4,4"/>
<!-- 0 -->
<g id="node1" class="node">
<title>0</title>
<path fill="none" stroke="#d88d56" stroke-width="2" stroke-dasharray="5,2" d="M158.8438,-36C158.8438,-36 128.8438,-36 128.8438,-36 122.8438,-36 116.8438,-30 116.8438,-24 116.8438,-24 116.8438,-12 116.8438,-12 116.8438,-6 122.8438,0 128.8438,0 128.8438,0 158.8438,0 158.8438,0 164.8438,0 170.8438,-6 170.8438,-12 170.8438,-12 170.8438,-24 170.8438,-24 170.8438,-30 164.8438,-36 158.8438,-36"/>
<text text-anchor="middle" x="143.8438" y="-15" font-family="sans" font-size="10.00" fill="#000000">all</text>
</g>
<!-- 1 -->
<g id="node2" class="node">
<title>1</title>
<path fill="none" stroke="#bed856" stroke-width="2" stroke-dasharray="5,2" d="M165.5291,-108C165.5291,-108 122.1584,-108 122.1584,-108 116.1584,-108 110.1584,-102 110.1584,-96 110.1584,-96 110.1584,-84 110.1584,-84 110.1584,-78 116.1584,-72 122.1584,-72 122.1584,-72 165.5291,-72 165.5291,-72 171.5291,-72 177.5291,-78 177.5291,-84 177.5291,-84 177.5291,-96 177.5291,-96 177.5291,-102 171.5291,-108 165.5291,-108"/>
<text text-anchor="middle" x="143.8438" y="-87" font-family="sans" font-size="10.00" fill="#000000">countmatrix</text>
</g>
<!-- 1&#45;&gt;0 -->
<g id="edge1" class="edge">
<title>1&#45;&gt;0</title>
<path fill="none" stroke="#c0c0c0" stroke-width="2" d="M143.8438,-71.8314C143.8438,-64.131 143.8438,-54.9743 143.8438,-46.4166"/>
<polygon fill="#c0c0c0" stroke="#c0c0c0" stroke-width="2" points="147.3438,-46.4132 143.8438,-36.4133 140.3438,-46.4133 147.3438,-46.4132"/>
</g>
<!-- 2 -->
<g id="node3" class="node">
<title>2</title>
<path fill="none" stroke="#56c1d8" stroke-width="2" stroke-dasharray="5,2" d="M172.9913,-252C172.9913,-252 114.6962,-252 114.6962,-252 108.6962,-252 102.6962,-246 102.6962,-240 102.6962,-240 102.6962,-228 102.6962,-228 102.6962,-222 108.6962,-216 114.6962,-216 114.6962,-216 172.9913,-216 172.9913,-216 178.9913,-216 184.9913,-222 184.9913,-228 184.9913,-228 184.9913,-240 184.9913,-240 184.9913,-246 178.9913,-252 172.9913,-252"/>
<text text-anchor="middle" x="143.8438" y="-231" font-family="sans" font-size="10.00" fill="#000000">peakformatting</text>
</g>
<!-- 2&#45;&gt;1 -->
<g id="edge2" class="edge">
<title>2&#45;&gt;1</title>
<path fill="none" stroke="#c0c0c0" stroke-width="2" d="M143.8438,-215.7623C143.8438,-191.201 143.8438,-147.2474 143.8438,-118.3541"/>
<polygon fill="#c0c0c0" stroke="#c0c0c0" stroke-width="2" points="147.3438,-118.0896 143.8438,-108.0896 140.3438,-118.0897 147.3438,-118.0896"/>
</g>
<!-- 3 -->
<g id="node4" class="node">
<title>3</title>
<path fill="none" stroke="#56d88a" stroke-width="2" stroke-dasharray="5,2" d="M247.4962,-180C247.4962,-180 184.1913,-180 184.1913,-180 178.1913,-180 172.1913,-174 172.1913,-168 172.1913,-168 172.1913,-156 172.1913,-156 172.1913,-150 178.1913,-144 184.1913,-144 184.1913,-144 247.4962,-144 247.4962,-144 253.4962,-144 259.4962,-150 259.4962,-156 259.4962,-156 259.4962,-168 259.4962,-168 259.4962,-174 253.4962,-180 247.4962,-180"/>
<text text-anchor="middle" x="215.8438" y="-159" font-family="sans" font-size="10.00" fill="#000000">countpersample</text>
</g>
<!-- 2&#45;&gt;3 -->
<g id="edge6" class="edge">
<title>2&#45;&gt;3</title>
<path fill="none" stroke="#c0c0c0" stroke-width="2" d="M162.0124,-215.8314C170.559,-207.2848 180.8994,-196.9443 190.2239,-187.6198"/>
<polygon fill="#c0c0c0" stroke="#c0c0c0" stroke-width="2" points="192.8343,-189.9592 197.4305,-180.4133 187.8845,-185.0095 192.8343,-189.9592"/>
</g>
<!-- 4 -->
<g id="node5" class="node">
<title>4</title>
<path fill="none" stroke="#56d88a" stroke-width="2" stroke-dasharray="5,2" d="M103.4962,-180C103.4962,-180 40.1913,-180 40.1913,-180 34.1913,-180 28.1913,-174 28.1913,-168 28.1913,-168 28.1913,-156 28.1913,-156 28.1913,-150 34.1913,-144 40.1913,-144 40.1913,-144 103.4962,-144 103.4962,-144 109.4962,-144 115.4962,-150 115.4962,-156 115.4962,-156 115.4962,-168 115.4962,-168 115.4962,-174 109.4962,-180 103.4962,-180"/>
<text text-anchor="middle" x="71.8438" y="-159" font-family="sans" font-size="10.00" fill="#000000">countpersample</text>
</g>
<!-- 2&#45;&gt;4 -->
<g id="edge8" class="edge">
<title>2&#45;&gt;4</title>
<path fill="none" stroke="#c0c0c0" stroke-width="2" d="M125.6751,-215.8314C117.1285,-207.2848 106.7881,-196.9443 97.4636,-187.6198"/>
<polygon fill="#c0c0c0" stroke="#c0c0c0" stroke-width="2" points="99.803,-185.0095 90.257,-180.4133 94.8532,-189.9592 99.803,-185.0095"/>
</g>
<!-- 3&#45;&gt;1 -->
<g id="edge3" class="edge">
<title>3&#45;&gt;1</title>
<path fill="none" stroke="#c0c0c0" stroke-width="2" d="M197.6751,-143.8314C189.1285,-135.2848 178.7881,-124.9443 169.4636,-115.6198"/>
<polygon fill="#c0c0c0" stroke="#c0c0c0" stroke-width="2" points="171.803,-113.0095 162.257,-108.4133 166.8532,-117.9592 171.803,-113.0095"/>
</g>
<!-- 4&#45;&gt;1 -->
<g id="edge4" class="edge">
<title>4&#45;&gt;1</title>
<path fill="none" stroke="#c0c0c0" stroke-width="2" d="M90.0124,-143.8314C98.559,-135.2848 108.8994,-124.9443 118.2239,-115.6198"/>
<polygon fill="#c0c0c0" stroke="#c0c0c0" stroke-width="2" points="120.8343,-117.9592 125.4305,-108.4133 115.8845,-113.0095 120.8343,-117.9592"/>
</g>
<!-- 5 -->
<g id="node6" class="node">
<title>5</title>
<path fill="none" stroke="#d8bc56" stroke-width="2" stroke-dasharray="5,2" d="M164.8779,-324C164.8779,-324 122.8096,-324 122.8096,-324 116.8096,-324 110.8096,-318 110.8096,-312 110.8096,-312 110.8096,-300 110.8096,-300 110.8096,-294 116.8096,-288 122.8096,-288 122.8096,-288 164.8779,-288 164.8779,-288 170.8779,-288 176.8779,-294 176.8779,-300 176.8779,-300 176.8779,-312 176.8779,-312 176.8779,-318 170.8779,-324 164.8779,-324"/>
<text text-anchor="middle" x="143.8438" y="-303" font-family="sans" font-size="10.00" fill="#000000">peakcalling</text>
</g>
<!-- 5&#45;&gt;2 -->
<g id="edge5" class="edge">
<title>5&#45;&gt;2</title>
<path fill="none" stroke="#c0c0c0" stroke-width="2" d="M143.8438,-287.8314C143.8438,-280.131 143.8438,-270.9743 143.8438,-262.4166"/>
<polygon fill="#c0c0c0" stroke="#c0c0c0" stroke-width="2" points="147.3438,-262.4132 143.8438,-252.4133 140.3438,-262.4133 147.3438,-262.4132"/>
</g>
<!-- 6 -->
<g id="node7" class="node">
<title>6</title>
<path fill="none" stroke="#56d8c1" stroke-width="2" stroke-dasharray="5,2" d="M232.5437,-468C232.5437,-468 199.1438,-468 199.1438,-468 193.1438,-468 187.1438,-462 187.1438,-456 187.1438,-456 187.1438,-444 187.1438,-444 187.1438,-438 193.1438,-432 199.1438,-432 199.1438,-432 232.5437,-432 232.5437,-432 238.5437,-432 244.5437,-438 244.5437,-444 244.5437,-444 244.5437,-456 244.5437,-456 244.5437,-462 238.5437,-468 232.5437,-468"/>
<text text-anchor="middle" x="215.8438" y="-447" font-family="sans" font-size="10.00" fill="#000000">bam2bed</text>
</g>
<!-- 6&#45;&gt;3 -->
<g id="edge7" class="edge">
<title>6&#45;&gt;3</title>
<path fill="none" stroke="#c0c0c0" stroke-width="2" d="M215.8438,-431.9843C215.8438,-383.2939 215.8438,-248.7961 215.8438,-190.0573"/>
<polygon fill="#c0c0c0" stroke="#c0c0c0" stroke-width="2" points="219.3438,-190.0088 215.8438,-180.0089 212.3438,-190.0089 219.3438,-190.0088"/>
</g>
<!-- 8 -->
<g id="node9" class="node">
<title>8</title>
<path fill="none" stroke="#59d856" stroke-width="2" stroke-dasharray="5,2" d="M158.8438,-396C158.8438,-396 128.8438,-396 128.8438,-396 122.8438,-396 116.8438,-390 116.8438,-384 116.8438,-384 116.8438,-372 116.8438,-372 116.8438,-366 122.8438,-360 128.8438,-360 128.8438,-360 158.8438,-360 158.8438,-360 164.8438,-360 170.8438,-366 170.8438,-372 170.8438,-372 170.8438,-384 170.8438,-384 170.8438,-390 164.8438,-396 158.8438,-396"/>
<text text-anchor="middle" x="143.8438" y="-375" font-family="sans" font-size="10.00" fill="#000000">poolbed</text>
</g>
<!-- 6&#45;&gt;8 -->
<g id="edge13" class="edge">
<title>6&#45;&gt;8</title>
<path fill="none" stroke="#c0c0c0" stroke-width="2" d="M197.6751,-431.8314C189.1285,-423.2848 178.7881,-412.9443 169.4636,-403.6198"/>
<polygon fill="#c0c0c0" stroke="#c0c0c0" stroke-width="2" points="171.803,-401.0095 162.257,-396.4133 166.8532,-405.9592 171.803,-401.0095"/>
</g>
<!-- 7 -->
<g id="node8" class="node">
<title>7</title>
<path fill="none" stroke="#56d8c1" stroke-width="2" stroke-dasharray="5,2" d="M88.5437,-468C88.5437,-468 55.1438,-468 55.1438,-468 49.1438,-468 43.1438,-462 43.1438,-456 43.1438,-456 43.1438,-444 43.1438,-444 43.1438,-438 49.1438,-432 55.1438,-432 55.1438,-432 88.5437,-432 88.5437,-432 94.5437,-432 100.5437,-438 100.5437,-444 100.5437,-444 100.5437,-456 100.5437,-456 100.5437,-462 94.5437,-468 88.5437,-468"/>
<text text-anchor="middle" x="71.8438" y="-447" font-family="sans" font-size="10.00" fill="#000000">bam2bed</text>
</g>
<!-- 7&#45;&gt;4 -->
<g id="edge9" class="edge">
<title>7&#45;&gt;4</title>
<path fill="none" stroke="#c0c0c0" stroke-width="2" d="M71.8438,-431.9843C71.8438,-383.2939 71.8438,-248.7961 71.8438,-190.0573"/>
<polygon fill="#c0c0c0" stroke="#c0c0c0" stroke-width="2" points="75.3438,-190.0088 71.8438,-180.0089 68.3438,-190.0089 75.3438,-190.0088"/>
</g>
<!-- 7&#45;&gt;8 -->
<g id="edge14" class="edge">
<title>7&#45;&gt;8</title>
<path fill="none" stroke="#c0c0c0" stroke-width="2" d="M90.0124,-431.8314C98.559,-423.2848 108.8994,-412.9443 118.2239,-403.6198"/>
<polygon fill="#c0c0c0" stroke="#c0c0c0" stroke-width="2" points="120.8343,-405.9592 125.4305,-396.4133 115.8845,-401.0095 120.8343,-405.9592"/>
</g>
<!-- 8&#45;&gt;5 -->
<g id="edge10" class="edge">
<title>8&#45;&gt;5</title>
<path fill="none" stroke="#c0c0c0" stroke-width="2" d="M143.8438,-359.8314C143.8438,-352.131 143.8438,-342.9743 143.8438,-334.4166"/>
<polygon fill="#c0c0c0" stroke="#c0c0c0" stroke-width="2" points="147.3438,-334.4132 143.8438,-324.4133 140.3438,-334.4133 147.3438,-334.4132"/>
</g>
<!-- 9 -->
<g id="node10" class="node">
<title>9</title>
<path fill="none" stroke="#568ad8" stroke-width="2" stroke-dasharray="5,2" d="M273.417,-540C273.417,-540 166.2705,-540 166.2705,-540 160.2705,-540 154.2705,-534 154.2705,-528 154.2705,-528 154.2705,-516 154.2705,-516 154.2705,-510 160.2705,-504 166.2705,-504 166.2705,-504 273.417,-504 273.417,-504 279.417,-504 285.417,-510 285.417,-516 285.417,-516 285.417,-528 285.417,-528 285.417,-534 279.417,-540 273.417,-540"/>
<text text-anchor="middle" x="219.8438" y="-519" font-family="sans" font-size="10.00" fill="#000000">remove_duplicated_reads</text>
</g>
<!-- 9&#45;&gt;6 -->
<g id="edge11" class="edge">
<title>9&#45;&gt;6</title>
<path fill="none" stroke="#c0c0c0" stroke-width="2" d="M218.8344,-503.8314C218.4066,-496.131 217.8979,-486.9743 217.4225,-478.4166"/>
<polygon fill="#c0c0c0" stroke="#c0c0c0" stroke-width="2" points="220.9161,-478.2037 216.8667,-468.4133 213.9269,-478.592 220.9161,-478.2037"/>
</g>
<!-- 10 -->
<g id="node11" class="node">
<title>10</title>
<path fill="none" stroke="#568ad8" stroke-width="2" stroke-dasharray="5,2" d="M123.417,-540C123.417,-540 16.2705,-540 16.2705,-540 10.2705,-540 4.2705,-534 4.2705,-528 4.2705,-528 4.2705,-516 4.2705,-516 4.2705,-510 10.2705,-504 16.2705,-504 16.2705,-504 123.417,-504 123.417,-504 129.417,-504 135.417,-510 135.417,-516 135.417,-516 135.417,-528 135.417,-528 135.417,-534 129.417,-540 123.417,-540"/>
<text text-anchor="middle" x="69.8438" y="-519" font-family="sans" font-size="10.00" fill="#000000">remove_duplicated_reads</text>
</g>
<!-- 10&#45;&gt;7 -->
<g id="edge12" class="edge">
<title>10&#45;&gt;7</title>
<path fill="none" stroke="#c0c0c0" stroke-width="2" d="M70.3484,-503.8314C70.5623,-496.131 70.8167,-486.9743 71.0544,-478.4166"/>
<polygon fill="#c0c0c0" stroke="#c0c0c0" stroke-width="2" points="74.5532,-478.5066 71.3323,-468.4133 67.5559,-478.3122 74.5532,-478.5066"/>
</g>
<!-- 11 -->
<g id="node12" class="node">
<title>11</title>
<path fill="none" stroke="#d85656" stroke-width="2" stroke-dasharray="5,2" d="M277.5316,-612C277.5316,-612 166.1559,-612 166.1559,-612 160.1559,-612 154.1559,-606 154.1559,-600 154.1559,-600 154.1559,-588 154.1559,-588 154.1559,-582 160.1559,-576 166.1559,-576 166.1559,-576 277.5316,-576 277.5316,-576 283.5316,-576 289.5316,-582 289.5316,-588 289.5316,-588 289.5316,-600 289.5316,-600 289.5316,-606 283.5316,-612 277.5316,-612"/>
<text text-anchor="middle" x="221.8438" y="-596" font-family="sans" font-size="10.00" fill="#000000">align_bam_sort</text>
<text text-anchor="middle" x="221.8438" y="-586" font-family="sans" font-size="10.00" fill="#000000">samples: DN_08_WASPed</text>
</g>
<!-- 11&#45;&gt;9 -->
<g id="edge15" class="edge">
<title>11&#45;&gt;9</title>
<path fill="none" stroke="#c0c0c0" stroke-width="2" d="M221.3391,-575.8314C221.1252,-568.131 220.8708,-558.9743 220.6331,-550.4166"/>
<polygon fill="#c0c0c0" stroke="#c0c0c0" stroke-width="2" points="224.1316,-550.3122 220.3552,-540.4133 217.1343,-550.5066 224.1316,-550.3122"/>
</g>
<!-- 12 -->
<g id="node13" class="node">
<title>12</title>
<path fill="none" stroke="#d85656" stroke-width="2" stroke-dasharray="5,2" d="M123.5316,-612C123.5316,-612 12.1559,-612 12.1559,-612 6.1559,-612 .1559,-606 .1559,-600 .1559,-600 .1559,-588 .1559,-588 .1559,-582 6.1559,-576 12.1559,-576 12.1559,-576 123.5316,-576 123.5316,-576 129.5316,-576 135.5316,-582 135.5316,-588 135.5316,-588 135.5316,-600 135.5316,-600 135.5316,-606 129.5316,-612 123.5316,-612"/>
<text text-anchor="middle" x="67.8438" y="-596" font-family="sans" font-size="10.00" fill="#000000">align_bam_sort</text>
<text text-anchor="middle" x="67.8438" y="-586" font-family="sans" font-size="10.00" fill="#000000">samples: DN_07_WASPed</text>
</g>
<!-- 12&#45;&gt;10 -->
<g id="edge16" class="edge">
<title>12&#45;&gt;10</title>
<path fill="none" stroke="#c0c0c0" stroke-width="2" d="M68.3484,-575.8314C68.5623,-568.131 68.8167,-558.9743 69.0544,-550.4166"/>
<polygon fill="#c0c0c0" stroke="#c0c0c0" stroke-width="2" points="72.5532,-550.5066 69.3323,-540.4133 65.5559,-550.3122 72.5532,-550.5066"/>
</g>
</g>
</svg>
