<?xml version="1.0" encoding="UTF-8" standalone="no"?>
<!DOCTYPE svg PUBLIC "-//W3C//DTD SVG 1.1//EN"
 "http://www.w3.org/Graphics/SVG/1.1/DTD/svg11.dtd">
<!-- Generated by graphviz version 2.38.0 (20140413.2041)
 -->
<!-- Title: snakemake_dag Pages: 1 -->
<svg width="318pt" height="476pt"
 viewBox="0.00 0.00 318.00 476.00" xmlns="http://www.w3.org/2000/svg" xmlns:xlink="http://www.w3.org/1999/xlink">
<g id="graph0" class="graph" transform="scale(1 1) rotate(0) translate(4 472)">
<title>snakemake_dag</title>
<polygon fill="white" stroke="none" points="-4,4 -4,-472 314,-472 314,4 -4,4"/>
<!-- 0 -->
<g id="node1" class="node"><title>0</title>
<path fill="none" stroke="#56d8c9" stroke-width="2" stroke-dasharray="5,2" d="M171,-36C171,-36 141,-36 141,-36 135,-36 129,-30 129,-24 129,-24 129,-12 129,-12 129,-6 135,-0 141,-0 141,-0 171,-0 171,-0 177,-0 183,-6 183,-12 183,-12 183,-24 183,-24 183,-30 177,-36 171,-36"/>
<text text-anchor="middle" x="156" y="-15.5" font-family="sans" font-size="10.00">all</text>
</g>
<!-- 1 -->
<g id="node2" class="node"><title>1</title>
<path fill="none" stroke="#56d87b" stroke-width="2" stroke-dasharray="5,2" d="M182,-108C182,-108 130,-108 130,-108 124,-108 118,-102 118,-96 118,-96 118,-84 118,-84 118,-78 124,-72 130,-72 130,-72 182,-72 182,-72 188,-72 194,-78 194,-84 194,-84 194,-96 194,-96 194,-102 188,-108 182,-108"/>
<text text-anchor="middle" x="156" y="-87.5" font-family="sans" font-size="10.00">countmatrix</text>
</g>
<!-- 1&#45;&gt;0 -->
<g id="edge1" class="edge"><title>1&#45;&gt;0</title>
<path fill="none" stroke="grey" stroke-width="2" d="M156,-71.6966C156,-63.9827 156,-54.7125 156,-46.1124"/>
<polygon fill="grey" stroke="grey" stroke-width="2" points="159.5,-46.1043 156,-36.1043 152.5,-46.1044 159.5,-46.1043"/>
</g>
<!-- 2 -->
<g id="node3" class="node"><title>2</title>
<path fill="none" stroke="#d8a456" stroke-width="2" stroke-dasharray="5,2" d="M190,-252C190,-252 122,-252 122,-252 116,-252 110,-246 110,-240 110,-240 110,-228 110,-228 110,-222 116,-216 122,-216 122,-216 190,-216 190,-216 196,-216 202,-222 202,-228 202,-228 202,-240 202,-240 202,-246 196,-252 190,-252"/>
<text text-anchor="middle" x="156" y="-231.5" font-family="sans" font-size="10.00">peakformatting</text>
</g>
<!-- 2&#45;&gt;1 -->
<g id="edge2" class="edge"><title>2&#45;&gt;1</title>
<path fill="none" stroke="grey" stroke-width="2" d="M156,-215.871C156,-191.67 156,-147.211 156,-118.393"/>
<polygon fill="grey" stroke="grey" stroke-width="2" points="159.5,-118.189 156,-108.189 152.5,-118.189 159.5,-118.189"/>
</g>
<!-- 3 -->
<g id="node4" class="node"><title>3</title>
<path fill="none" stroke="#56a2d8" stroke-width="2" stroke-dasharray="5,2" d="M115.5,-180C115.5,-180 44.5,-180 44.5,-180 38.5,-180 32.5,-174 32.5,-168 32.5,-168 32.5,-156 32.5,-156 32.5,-150 38.5,-144 44.5,-144 44.5,-144 115.5,-144 115.5,-144 121.5,-144 127.5,-150 127.5,-156 127.5,-156 127.5,-168 127.5,-168 127.5,-174 121.5,-180 115.5,-180"/>
<text text-anchor="middle" x="80" y="-159.5" font-family="sans" font-size="10.00">countpersample</text>
</g>
<!-- 2&#45;&gt;3 -->
<g id="edge6" class="edge"><title>2&#45;&gt;3</title>
<path fill="none" stroke="grey" stroke-width="2" d="M137.213,-215.697C127.826,-207.05 116.316,-196.449 106.087,-187.027"/>
<polygon fill="grey" stroke="grey" stroke-width="2" points="108.297,-184.305 98.5704,-180.104 103.555,-189.454 108.297,-184.305"/>
</g>
<!-- 4 -->
<g id="node5" class="node"><title>4</title>
<path fill="none" stroke="#56a2d8" stroke-width="2" stroke-dasharray="5,2" d="M267.5,-180C267.5,-180 196.5,-180 196.5,-180 190.5,-180 184.5,-174 184.5,-168 184.5,-168 184.5,-156 184.5,-156 184.5,-150 190.5,-144 196.5,-144 196.5,-144 267.5,-144 267.5,-144 273.5,-144 279.5,-150 279.5,-156 279.5,-156 279.5,-168 279.5,-168 279.5,-174 273.5,-180 267.5,-180"/>
<text text-anchor="middle" x="232" y="-159.5" font-family="sans" font-size="10.00">countpersample</text>
</g>
<!-- 2&#45;&gt;4 -->
<g id="edge8" class="edge"><title>2&#45;&gt;4</title>
<path fill="none" stroke="grey" stroke-width="2" d="M174.787,-215.697C184.174,-207.05 195.684,-196.449 205.913,-187.027"/>
<polygon fill="grey" stroke="grey" stroke-width="2" points="208.445,-189.454 213.43,-180.104 203.703,-184.305 208.445,-189.454"/>
</g>
<!-- 3&#45;&gt;1 -->
<g id="edge3" class="edge"><title>3&#45;&gt;1</title>
<path fill="none" stroke="grey" stroke-width="2" d="M98.7865,-143.697C108.174,-135.05 119.684,-124.449 129.913,-115.027"/>
<polygon fill="grey" stroke="grey" stroke-width="2" points="132.445,-117.454 137.43,-108.104 127.703,-112.305 132.445,-117.454"/>
</g>
<!-- 4&#45;&gt;1 -->
<g id="edge4" class="edge"><title>4&#45;&gt;1</title>
<path fill="none" stroke="grey" stroke-width="2" d="M213.213,-143.697C203.826,-135.05 192.316,-124.449 182.087,-115.027"/>
<polygon fill="grey" stroke="grey" stroke-width="2" points="184.297,-112.305 174.57,-108.104 179.555,-117.454 184.297,-112.305"/>
</g>
<!-- 5 -->
<g id="node6" class="node"><title>5</title>
<path fill="none" stroke="#d85656" stroke-width="2" stroke-dasharray="5,2" d="M180.5,-324C180.5,-324 131.5,-324 131.5,-324 125.5,-324 119.5,-318 119.5,-312 119.5,-312 119.5,-300 119.5,-300 119.5,-294 125.5,-288 131.5,-288 131.5,-288 180.5,-288 180.5,-288 186.5,-288 192.5,-294 192.5,-300 192.5,-300 192.5,-312 192.5,-312 192.5,-318 186.5,-324 180.5,-324"/>
<text text-anchor="middle" x="156" y="-303.5" font-family="sans" font-size="10.00">peakcalling</text>
</g>
<!-- 5&#45;&gt;2 -->
<g id="edge5" class="edge"><title>5&#45;&gt;2</title>
<path fill="none" stroke="grey" stroke-width="2" d="M156,-287.697C156,-279.983 156,-270.712 156,-262.112"/>
<polygon fill="grey" stroke="grey" stroke-width="2" points="159.5,-262.104 156,-252.104 152.5,-262.104 159.5,-262.104"/>
</g>
<!-- 6 -->
<g id="node7" class="node"><title>6</title>
<path fill="none" stroke="#c6d856" stroke-width="2" stroke-dasharray="5,2" d="M134,-468C134,-468 12,-468 12,-468 6,-468 0,-462 0,-456 0,-456 0,-444 0,-444 0,-438 6,-432 12,-432 12,-432 134,-432 134,-432 140,-432 146,-438 146,-444 146,-444 146,-456 146,-456 146,-462 140,-468 134,-468"/>
<text text-anchor="middle" x="73" y="-453" font-family="sans" font-size="10.00">bam2bed</text>
<text text-anchor="middle" x="73" y="-442" font-family="sans" font-size="10.00">samples: NSC_03_WASPed</text>
</g>
<!-- 6&#45;&gt;3 -->
<g id="edge7" class="edge"><title>6&#45;&gt;3</title>
<path fill="none" stroke="grey" stroke-width="2" d="M73.4169,-431.966C74.5838,-384.291 77.8906,-249.185 79.3237,-190.63"/>
<polygon fill="grey" stroke="grey" stroke-width="2" points="82.8306,-190.389 79.5764,-180.306 75.8327,-190.218 82.8306,-190.389"/>
</g>
<!-- 8 -->
<g id="node9" class="node"><title>8</title>
<path fill="none" stroke="#78d856" stroke-width="2" stroke-dasharray="5,2" d="M172,-396C172,-396 140,-396 140,-396 134,-396 128,-390 128,-384 128,-384 128,-372 128,-372 128,-366 134,-360 140,-360 140,-360 172,-360 172,-360 178,-360 184,-366 184,-372 184,-372 184,-384 184,-384 184,-390 178,-396 172,-396"/>
<text text-anchor="middle" x="156" y="-375.5" font-family="sans" font-size="10.00">poolbed</text>
</g>
<!-- 6&#45;&gt;8 -->
<g id="edge11" class="edge"><title>6&#45;&gt;8</title>
<path fill="none" stroke="grey" stroke-width="2" d="M93.5169,-431.697C103.869,-422.965 116.586,-412.24 127.839,-402.75"/>
<polygon fill="grey" stroke="grey" stroke-width="2" points="130.331,-405.227 135.719,-396.104 125.818,-399.876 130.331,-405.227"/>
</g>
<!-- 7 -->
<g id="node8" class="node"><title>7</title>
<path fill="none" stroke="#c6d856" stroke-width="2" stroke-dasharray="5,2" d="M298,-468C298,-468 176,-468 176,-468 170,-468 164,-462 164,-456 164,-456 164,-444 164,-444 164,-438 170,-432 176,-432 176,-432 298,-432 298,-432 304,-432 310,-438 310,-444 310,-444 310,-456 310,-456 310,-462 304,-468 298,-468"/>
<text text-anchor="middle" x="237" y="-453" font-family="sans" font-size="10.00">bam2bed</text>
<text text-anchor="middle" x="237" y="-442" font-family="sans" font-size="10.00">samples: NSC_02_WASPed</text>
</g>
<!-- 7&#45;&gt;4 -->
<g id="edge9" class="edge"><title>7&#45;&gt;4</title>
<path fill="none" stroke="grey" stroke-width="2" d="M236.702,-431.966C235.869,-384.291 233.507,-249.185 232.483,-190.63"/>
<polygon fill="grey" stroke="grey" stroke-width="2" points="235.977,-190.244 232.303,-180.306 228.978,-190.366 235.977,-190.244"/>
</g>
<!-- 7&#45;&gt;8 -->
<g id="edge12" class="edge"><title>7&#45;&gt;8</title>
<path fill="none" stroke="grey" stroke-width="2" d="M216.978,-431.697C206.874,-422.965 194.464,-412.24 183.482,-402.75"/>
<polygon fill="grey" stroke="grey" stroke-width="2" points="185.647,-399.995 175.792,-396.104 181.07,-405.291 185.647,-399.995"/>
</g>
<!-- 8&#45;&gt;5 -->
<g id="edge10" class="edge"><title>8&#45;&gt;5</title>
<path fill="none" stroke="grey" stroke-width="2" d="M156,-359.697C156,-351.983 156,-342.712 156,-334.112"/>
<polygon fill="grey" stroke="grey" stroke-width="2" points="159.5,-334.104 156,-324.104 152.5,-334.104 159.5,-334.104"/>
</g>
</g>
</svg>
