<?xml version="1.0" encoding="UTF-8" standalone="no"?>
<!DOCTYPE svg PUBLIC "-//W3C//DTD SVG 1.1//EN"
 "http://www.w3.org/Graphics/SVG/1.1/DTD/svg11.dtd">
<!-- Generated by graphviz version 2.40.1 (20161225.0304)
 -->
<!-- Title: snakemake_dag Pages: 1 -->
<svg width="288pt" height="620pt"
 viewBox="0.00 0.00 288.07 620.00" xmlns="http://www.w3.org/2000/svg" xmlns:xlink="http://www.w3.org/1999/xlink">
<g id="graph0" class="graph" transform="scale(1 1) rotate(0) translate(4 616)">
<title>snakemake_dag</title>
<polygon fill="#ffffff" stroke="transparent" points="-4,4 -4,-616 284.0732,-616 284.0732,4 -4,4"/>
<!-- 0 -->
<g id="node1" class="node">
<title>0</title>
<path fill="none" stroke="#d88d56" stroke-width="2" stroke-dasharray="5,2" d="M154.5366,-36C154.5366,-36 124.5366,-36 124.5366,-36 118.5366,-36 112.5366,-30 112.5366,-24 112.5366,-24 112.5366,-12 112.5366,-12 112.5366,-6 118.5366,0 124.5366,0 124.5366,0 154.5366,0 154.5366,0 160.5366,0 166.5366,-6 166.5366,-12 166.5366,-12 166.5366,-24 166.5366,-24 166.5366,-30 160.5366,-36 154.5366,-36"/>
<text text-anchor="middle" x="139.5366" y="-15" font-family="sans" font-size="10.00" fill="#000000">all</text>
</g>
<!-- 1 -->
<g id="node2" class="node">
<title>1</title>
<path fill="none" stroke="#bed856" stroke-width="2" stroke-dasharray="5,2" d="M161.2219,-108C161.2219,-108 117.8513,-108 117.8513,-108 111.8513,-108 105.8513,-102 105.8513,-96 105.8513,-96 105.8513,-84 105.8513,-84 105.8513,-78 111.8513,-72 117.8513,-72 117.8513,-72 161.2219,-72 161.2219,-72 167.2219,-72 173.2219,-78 173.2219,-84 173.2219,-84 173.2219,-96 173.2219,-96 173.2219,-102 167.2219,-108 161.2219,-108"/>
<text text-anchor="middle" x="139.5366" y="-87" font-family="sans" font-size="10.00" fill="#000000">countmatrix</text>
</g>
<!-- 1&#45;&gt;0 -->
<g id="edge1" class="edge">
<title>1&#45;&gt;0</title>
<path fill="none" stroke="#c0c0c0" stroke-width="2" d="M139.5366,-71.8314C139.5366,-64.131 139.5366,-54.9743 139.5366,-46.4166"/>
<polygon fill="#c0c0c0" stroke="#c0c0c0" stroke-width="2" points="143.0367,-46.4132 139.5366,-36.4133 136.0367,-46.4133 143.0367,-46.4132"/>
</g>
<!-- 2 -->
<g id="node3" class="node">
<title>2</title>
<path fill="none" stroke="#56c1d8" stroke-width="2" stroke-dasharray="5,2" d="M168.6842,-252C168.6842,-252 110.389,-252 110.389,-252 104.389,-252 98.389,-246 98.389,-240 98.389,-240 98.389,-228 98.389,-228 98.389,-222 104.389,-216 110.389,-216 110.389,-216 168.6842,-216 168.6842,-216 174.6842,-216 180.6842,-222 180.6842,-228 180.6842,-228 180.6842,-240 180.6842,-240 180.6842,-246 174.6842,-252 168.6842,-252"/>
<text text-anchor="middle" x="139.5366" y="-231" font-family="sans" font-size="10.00" fill="#000000">peakformatting</text>
</g>
<!-- 2&#45;&gt;1 -->
<g id="edge2" class="edge">
<title>2&#45;&gt;1</title>
<path fill="none" stroke="#c0c0c0" stroke-width="2" d="M139.5366,-215.7623C139.5366,-191.201 139.5366,-147.2474 139.5366,-118.3541"/>
<polygon fill="#c0c0c0" stroke="#c0c0c0" stroke-width="2" points="143.0367,-118.0896 139.5366,-108.0896 136.0367,-118.0897 143.0367,-118.0896"/>
</g>
<!-- 3 -->
<g id="node4" class="node">
<title>3</title>
<path fill="none" stroke="#56d88a" stroke-width="2" stroke-dasharray="5,2" d="M243.1891,-180C243.1891,-180 179.8841,-180 179.8841,-180 173.8841,-180 167.8841,-174 167.8841,-168 167.8841,-168 167.8841,-156 167.8841,-156 167.8841,-150 173.8841,-144 179.8841,-144 179.8841,-144 243.1891,-144 243.1891,-144 249.1891,-144 255.1891,-150 255.1891,-156 255.1891,-156 255.1891,-168 255.1891,-168 255.1891,-174 249.1891,-180 243.1891,-180"/>
<text text-anchor="middle" x="211.5366" y="-159" font-family="sans" font-size="10.00" fill="#000000">countpersample</text>
</g>
<!-- 2&#45;&gt;3 -->
<g id="edge6" class="edge">
<title>2&#45;&gt;3</title>
<path fill="none" stroke="#c0c0c0" stroke-width="2" d="M157.7053,-215.8314C166.2519,-207.2848 176.5923,-196.9443 185.9168,-187.6198"/>
<polygon fill="#c0c0c0" stroke="#c0c0c0" stroke-width="2" points="188.5271,-189.9592 193.1234,-180.4133 183.5774,-185.0095 188.5271,-189.9592"/>
</g>
<!-- 4 -->
<g id="node5" class="node">
<title>4</title>
<path fill="none" stroke="#56d88a" stroke-width="2" stroke-dasharray="5,2" d="M99.1891,-180C99.1891,-180 35.8841,-180 35.8841,-180 29.8841,-180 23.8841,-174 23.8841,-168 23.8841,-168 23.8841,-156 23.8841,-156 23.8841,-150 29.8841,-144 35.8841,-144 35.8841,-144 99.1891,-144 99.1891,-144 105.1891,-144 111.1891,-150 111.1891,-156 111.1891,-156 111.1891,-168 111.1891,-168 111.1891,-174 105.1891,-180 99.1891,-180"/>
<text text-anchor="middle" x="67.5366" y="-159" font-family="sans" font-size="10.00" fill="#000000">countpersample</text>
</g>
<!-- 2&#45;&gt;4 -->
<g id="edge8" class="edge">
<title>2&#45;&gt;4</title>
<path fill="none" stroke="#c0c0c0" stroke-width="2" d="M121.368,-215.8314C112.8214,-207.2848 102.4809,-196.9443 93.1565,-187.6198"/>
<polygon fill="#c0c0c0" stroke="#c0c0c0" stroke-width="2" points="95.4959,-185.0095 85.9499,-180.4133 90.5461,-189.9592 95.4959,-185.0095"/>
</g>
<!-- 3&#45;&gt;1 -->
<g id="edge3" class="edge">
<title>3&#45;&gt;1</title>
<path fill="none" stroke="#c0c0c0" stroke-width="2" d="M193.368,-143.8314C184.8214,-135.2848 174.4809,-124.9443 165.1565,-115.6198"/>
<polygon fill="#c0c0c0" stroke="#c0c0c0" stroke-width="2" points="167.4959,-113.0095 157.9499,-108.4133 162.5461,-117.9592 167.4959,-113.0095"/>
</g>
<!-- 4&#45;&gt;1 -->
<g id="edge4" class="edge">
<title>4&#45;&gt;1</title>
<path fill="none" stroke="#c0c0c0" stroke-width="2" d="M85.7053,-143.8314C94.2519,-135.2848 104.5923,-124.9443 113.9168,-115.6198"/>
<polygon fill="#c0c0c0" stroke="#c0c0c0" stroke-width="2" points="116.5271,-117.9592 121.1234,-108.4133 111.5774,-113.0095 116.5271,-117.9592"/>
</g>
<!-- 5 -->
<g id="node6" class="node">
<title>5</title>
<path fill="none" stroke="#d8bc56" stroke-width="2" stroke-dasharray="5,2" d="M160.5708,-324C160.5708,-324 118.5024,-324 118.5024,-324 112.5024,-324 106.5024,-318 106.5024,-312 106.5024,-312 106.5024,-300 106.5024,-300 106.5024,-294 112.5024,-288 118.5024,-288 118.5024,-288 160.5708,-288 160.5708,-288 166.5708,-288 172.5708,-294 172.5708,-300 172.5708,-300 172.5708,-312 172.5708,-312 172.5708,-318 166.5708,-324 160.5708,-324"/>
<text text-anchor="middle" x="139.5366" y="-303" font-family="sans" font-size="10.00" fill="#000000">peakcalling</text>
</g>
<!-- 5&#45;&gt;2 -->
<g id="edge5" class="edge">
<title>5&#45;&gt;2</title>
<path fill="none" stroke="#c0c0c0" stroke-width="2" d="M139.5366,-287.8314C139.5366,-280.131 139.5366,-270.9743 139.5366,-262.4166"/>
<polygon fill="#c0c0c0" stroke="#c0c0c0" stroke-width="2" points="143.0367,-262.4132 139.5366,-252.4133 136.0367,-262.4133 143.0367,-262.4132"/>
</g>
<!-- 6 -->
<g id="node7" class="node">
<title>6</title>
<path fill="none" stroke="#56d8c1" stroke-width="2" stroke-dasharray="5,2" d="M228.2366,-468C228.2366,-468 194.8366,-468 194.8366,-468 188.8366,-468 182.8366,-462 182.8366,-456 182.8366,-456 182.8366,-444 182.8366,-444 182.8366,-438 188.8366,-432 194.8366,-432 194.8366,-432 228.2366,-432 228.2366,-432 234.2366,-432 240.2366,-438 240.2366,-444 240.2366,-444 240.2366,-456 240.2366,-456 240.2366,-462 234.2366,-468 228.2366,-468"/>
<text text-anchor="middle" x="211.5366" y="-447" font-family="sans" font-size="10.00" fill="#000000">bam2bed</text>
</g>
<!-- 6&#45;&gt;3 -->
<g id="edge7" class="edge">
<title>6&#45;&gt;3</title>
<path fill="none" stroke="#c0c0c0" stroke-width="2" d="M211.5366,-431.9843C211.5366,-383.2939 211.5366,-248.7961 211.5366,-190.0573"/>
<polygon fill="#c0c0c0" stroke="#c0c0c0" stroke-width="2" points="215.0367,-190.0088 211.5366,-180.0089 208.0367,-190.0089 215.0367,-190.0088"/>
</g>
<!-- 8 -->
<g id="node9" class="node">
<title>8</title>
<path fill="none" stroke="#59d856" stroke-width="2" stroke-dasharray="5,2" d="M154.5366,-396C154.5366,-396 124.5366,-396 124.5366,-396 118.5366,-396 112.5366,-390 112.5366,-384 112.5366,-384 112.5366,-372 112.5366,-372 112.5366,-366 118.5366,-360 124.5366,-360 124.5366,-360 154.5366,-360 154.5366,-360 160.5366,-360 166.5366,-366 166.5366,-372 166.5366,-372 166.5366,-384 166.5366,-384 166.5366,-390 160.5366,-396 154.5366,-396"/>
<text text-anchor="middle" x="139.5366" y="-375" font-family="sans" font-size="10.00" fill="#000000">poolbed</text>
</g>
<!-- 6&#45;&gt;8 -->
<g id="edge13" class="edge">
<title>6&#45;&gt;8</title>
<path fill="none" stroke="#c0c0c0" stroke-width="2" d="M193.368,-431.8314C184.8214,-423.2848 174.4809,-412.9443 165.1565,-403.6198"/>
<polygon fill="#c0c0c0" stroke="#c0c0c0" stroke-width="2" points="167.4959,-401.0095 157.9499,-396.4133 162.5461,-405.9592 167.4959,-401.0095"/>
</g>
<!-- 7 -->
<g id="node8" class="node">
<title>7</title>
<path fill="none" stroke="#56d8c1" stroke-width="2" stroke-dasharray="5,2" d="M84.2366,-468C84.2366,-468 50.8366,-468 50.8366,-468 44.8366,-468 38.8366,-462 38.8366,-456 38.8366,-456 38.8366,-444 38.8366,-444 38.8366,-438 44.8366,-432 50.8366,-432 50.8366,-432 84.2366,-432 84.2366,-432 90.2366,-432 96.2366,-438 96.2366,-444 96.2366,-444 96.2366,-456 96.2366,-456 96.2366,-462 90.2366,-468 84.2366,-468"/>
<text text-anchor="middle" x="67.5366" y="-447" font-family="sans" font-size="10.00" fill="#000000">bam2bed</text>
</g>
<!-- 7&#45;&gt;4 -->
<g id="edge9" class="edge">
<title>7&#45;&gt;4</title>
<path fill="none" stroke="#c0c0c0" stroke-width="2" d="M67.5366,-431.9843C67.5366,-383.2939 67.5366,-248.7961 67.5366,-190.0573"/>
<polygon fill="#c0c0c0" stroke="#c0c0c0" stroke-width="2" points="71.0367,-190.0088 67.5366,-180.0089 64.0367,-190.0089 71.0367,-190.0088"/>
</g>
<!-- 7&#45;&gt;8 -->
<g id="edge14" class="edge">
<title>7&#45;&gt;8</title>
<path fill="none" stroke="#c0c0c0" stroke-width="2" d="M85.7053,-431.8314C94.2519,-423.2848 104.5923,-412.9443 113.9168,-403.6198"/>
<polygon fill="#c0c0c0" stroke="#c0c0c0" stroke-width="2" points="116.5271,-405.9592 121.1234,-396.4133 111.5774,-401.0095 116.5271,-405.9592"/>
</g>
<!-- 8&#45;&gt;5 -->
<g id="edge10" class="edge">
<title>8&#45;&gt;5</title>
<path fill="none" stroke="#c0c0c0" stroke-width="2" d="M139.5366,-359.8314C139.5366,-352.131 139.5366,-342.9743 139.5366,-334.4166"/>
<polygon fill="#c0c0c0" stroke="#c0c0c0" stroke-width="2" points="143.0367,-334.4132 139.5366,-324.4133 136.0367,-334.4133 143.0367,-334.4132"/>
</g>
<!-- 9 -->
<g id="node10" class="node">
<title>9</title>
<path fill="none" stroke="#568ad8" stroke-width="2" stroke-dasharray="5,2" d="M268.1099,-540C268.1099,-540 160.9634,-540 160.9634,-540 154.9634,-540 148.9634,-534 148.9634,-528 148.9634,-528 148.9634,-516 148.9634,-516 148.9634,-510 154.9634,-504 160.9634,-504 160.9634,-504 268.1099,-504 268.1099,-504 274.1099,-504 280.1099,-510 280.1099,-516 280.1099,-516 280.1099,-528 280.1099,-528 280.1099,-534 274.1099,-540 268.1099,-540"/>
<text text-anchor="middle" x="214.5366" y="-519" font-family="sans" font-size="10.00" fill="#000000">remove_duplicated_reads</text>
</g>
<!-- 9&#45;&gt;6 -->
<g id="edge11" class="edge">
<title>9&#45;&gt;6</title>
<path fill="none" stroke="#c0c0c0" stroke-width="2" d="M213.7796,-503.8314C213.4587,-496.131 213.0772,-486.9743 212.7206,-478.4166"/>
<polygon fill="#c0c0c0" stroke="#c0c0c0" stroke-width="2" points="216.2172,-478.2589 212.3038,-468.4133 209.2233,-478.5503 216.2172,-478.2589"/>
</g>
<!-- 10 -->
<g id="node11" class="node">
<title>10</title>
<path fill="none" stroke="#568ad8" stroke-width="2" stroke-dasharray="5,2" d="M119.1099,-540C119.1099,-540 11.9634,-540 11.9634,-540 5.9634,-540 -.0366,-534 -.0366,-528 -.0366,-528 -.0366,-516 -.0366,-516 -.0366,-510 5.9634,-504 11.9634,-504 11.9634,-504 119.1099,-504 119.1099,-504 125.1099,-504 131.1099,-510 131.1099,-516 131.1099,-516 131.1099,-528 131.1099,-528 131.1099,-534 125.1099,-540 119.1099,-540"/>
<text text-anchor="middle" x="65.5366" y="-519" font-family="sans" font-size="10.00" fill="#000000">remove_duplicated_reads</text>
</g>
<!-- 10&#45;&gt;7 -->
<g id="edge12" class="edge">
<title>10&#45;&gt;7</title>
<path fill="none" stroke="#c0c0c0" stroke-width="2" d="M66.0413,-503.8314C66.2552,-496.131 66.5096,-486.9743 66.7473,-478.4166"/>
<polygon fill="#c0c0c0" stroke="#c0c0c0" stroke-width="2" points="70.246,-478.5066 67.0251,-468.4133 63.2487,-478.3122 70.246,-478.5066"/>
</g>
<!-- 11 -->
<g id="node12" class="node">
<title>11</title>
<path fill="none" stroke="#d85656" stroke-width="2" stroke-dasharray="5,2" d="M247.4576,-612C247.4576,-612 181.6157,-612 181.6157,-612 175.6157,-612 169.6157,-606 169.6157,-600 169.6157,-600 169.6157,-588 169.6157,-588 169.6157,-582 175.6157,-576 181.6157,-576 181.6157,-576 247.4576,-576 247.4576,-576 253.4576,-576 259.4576,-582 259.4576,-588 259.4576,-588 259.4576,-600 259.4576,-600 259.4576,-606 253.4576,-612 247.4576,-612"/>
<text text-anchor="middle" x="214.5366" y="-596" font-family="sans" font-size="10.00" fill="#000000">align_bam_sort</text>
<text text-anchor="middle" x="214.5366" y="-586" font-family="sans" font-size="10.00" fill="#000000">samples: DN_02</text>
</g>
<!-- 11&#45;&gt;9 -->
<g id="edge15" class="edge">
<title>11&#45;&gt;9</title>
<path fill="none" stroke="#c0c0c0" stroke-width="2" d="M214.5366,-575.8314C214.5366,-568.131 214.5366,-558.9743 214.5366,-550.4166"/>
<polygon fill="#c0c0c0" stroke="#c0c0c0" stroke-width="2" points="218.0367,-550.4132 214.5366,-540.4133 211.0367,-550.4133 218.0367,-550.4132"/>
</g>
<!-- 12 -->
<g id="node13" class="node">
<title>12</title>
<path fill="none" stroke="#d85656" stroke-width="2" stroke-dasharray="5,2" d="M98.4576,-612C98.4576,-612 32.6157,-612 32.6157,-612 26.6157,-612 20.6157,-606 20.6157,-600 20.6157,-600 20.6157,-588 20.6157,-588 20.6157,-582 26.6157,-576 32.6157,-576 32.6157,-576 98.4576,-576 98.4576,-576 104.4576,-576 110.4576,-582 110.4576,-588 110.4576,-588 110.4576,-600 110.4576,-600 110.4576,-606 104.4576,-612 98.4576,-612"/>
<text text-anchor="middle" x="65.5366" y="-596" font-family="sans" font-size="10.00" fill="#000000">align_bam_sort</text>
<text text-anchor="middle" x="65.5366" y="-586" font-family="sans" font-size="10.00" fill="#000000">samples: DN_01</text>
</g>
<!-- 12&#45;&gt;10 -->
<g id="edge16" class="edge">
<title>12&#45;&gt;10</title>
<path fill="none" stroke="#c0c0c0" stroke-width="2" d="M65.5366,-575.8314C65.5366,-568.131 65.5366,-558.9743 65.5366,-550.4166"/>
<polygon fill="#c0c0c0" stroke="#c0c0c0" stroke-width="2" points="69.0367,-550.4132 65.5366,-540.4133 62.0367,-550.4133 69.0367,-550.4132"/>
</g>
</g>
</svg>
