<?xml version="1.0" encoding="UTF-8" standalone="no"?>
<!DOCTYPE svg PUBLIC "-//W3C//DTD SVG 1.1//EN"
 "http://www.w3.org/Graphics/SVG/1.1/DTD/svg11.dtd">
<!-- Generated by graphviz version 2.38.0 (20140413.2041)
 -->
<!-- Title: snakemake_dag Pages: 1 -->
<svg width="100pt" height="332pt"
 viewBox="0.00 0.00 100.00 332.00" xmlns="http://www.w3.org/2000/svg" xmlns:xlink="http://www.w3.org/1999/xlink">
<g id="graph0" class="graph" transform="scale(1 1) rotate(0) translate(4 328)">
<title>snakemake_dag</title>
<polygon fill="white" stroke="none" points="-4,4 -4,-328 96,-328 96,4 -4,4"/>
<!-- 0 -->
<g id="node1" class="node"><title>0</title>
<path fill="none" stroke="#78d856" stroke-width="2" stroke-dasharray="5,2" d="M61,-36C61,-36 31,-36 31,-36 25,-36 19,-30 19,-24 19,-24 19,-12 19,-12 19,-6 25,-0 31,-0 31,-0 61,-0 61,-0 67,-0 73,-6 73,-12 73,-12 73,-24 73,-24 73,-30 67,-36 61,-36"/>
<text text-anchor="middle" x="46" y="-15.5" font-family="sans" font-size="10.00">all</text>
</g>
<!-- 1 -->
<g id="node2" class="node"><title>1</title>
<path fill="none" stroke="#56d87b" stroke-width="2" stroke-dasharray="5,2" d="M72,-108C72,-108 20,-108 20,-108 14,-108 8,-102 8,-96 8,-96 8,-84 8,-84 8,-78 14,-72 20,-72 20,-72 72,-72 72,-72 78,-72 84,-78 84,-84 84,-84 84,-96 84,-96 84,-102 78,-108 72,-108"/>
<text text-anchor="middle" x="46" y="-87.5" font-family="sans" font-size="10.00">countmatrix</text>
</g>
<!-- 1&#45;&gt;0 -->
<g id="edge1" class="edge"><title>1&#45;&gt;0</title>
<path fill="none" stroke="grey" stroke-width="2" d="M46,-71.6966C46,-63.9827 46,-54.7125 46,-46.1124"/>
<polygon fill="grey" stroke="grey" stroke-width="2" points="49.5001,-46.1043 46,-36.1043 42.5001,-46.1044 49.5001,-46.1043"/>
</g>
<!-- 2 -->
<g id="node3" class="node"><title>2</title>
<path fill="none" stroke="#c6d856" stroke-width="2" stroke-dasharray="5,2" d="M80,-180C80,-180 12,-180 12,-180 6,-180 0,-174 0,-168 0,-168 0,-156 0,-156 0,-150 6,-144 12,-144 12,-144 80,-144 80,-144 86,-144 92,-150 92,-156 92,-156 92,-168 92,-168 92,-174 86,-180 80,-180"/>
<text text-anchor="middle" x="46" y="-159.5" font-family="sans" font-size="10.00">peakformatting</text>
</g>
<!-- 2&#45;&gt;1 -->
<g id="edge2" class="edge"><title>2&#45;&gt;1</title>
<path fill="none" stroke="grey" stroke-width="2" d="M46,-143.697C46,-135.983 46,-126.712 46,-118.112"/>
<polygon fill="grey" stroke="grey" stroke-width="2" points="49.5001,-118.104 46,-108.104 42.5001,-118.104 49.5001,-118.104"/>
</g>
<!-- 3 -->
<g id="node4" class="node"><title>3</title>
<path fill="none" stroke="#56d8c9" stroke-width="2" stroke-dasharray="5,2" d="M70.5,-252C70.5,-252 21.5,-252 21.5,-252 15.5,-252 9.5,-246 9.5,-240 9.5,-240 9.5,-228 9.5,-228 9.5,-222 15.5,-216 21.5,-216 21.5,-216 70.5,-216 70.5,-216 76.5,-216 82.5,-222 82.5,-228 82.5,-228 82.5,-240 82.5,-240 82.5,-246 76.5,-252 70.5,-252"/>
<text text-anchor="middle" x="46" y="-231.5" font-family="sans" font-size="10.00">peakcalling</text>
</g>
<!-- 3&#45;&gt;2 -->
<g id="edge3" class="edge"><title>3&#45;&gt;2</title>
<path fill="none" stroke="grey" stroke-width="2" d="M46,-215.697C46,-207.983 46,-198.712 46,-190.112"/>
<polygon fill="grey" stroke="grey" stroke-width="2" points="49.5001,-190.104 46,-180.104 42.5001,-190.104 49.5001,-190.104"/>
</g>
<!-- 4 -->
<g id="node5" class="node"><title>4</title>
<path fill="none" stroke="#56a2d8" stroke-width="2" stroke-dasharray="5,2" d="M62,-324C62,-324 30,-324 30,-324 24,-324 18,-318 18,-312 18,-312 18,-300 18,-300 18,-294 24,-288 30,-288 30,-288 62,-288 62,-288 68,-288 74,-294 74,-300 74,-300 74,-312 74,-312 74,-318 68,-324 62,-324"/>
<text text-anchor="middle" x="46" y="-303.5" font-family="sans" font-size="10.00">poolbed</text>
</g>
<!-- 4&#45;&gt;3 -->
<g id="edge4" class="edge"><title>4&#45;&gt;3</title>
<path fill="none" stroke="grey" stroke-width="2" d="M46,-287.697C46,-279.983 46,-270.712 46,-262.112"/>
<polygon fill="grey" stroke="grey" stroke-width="2" points="49.5001,-262.104 46,-252.104 42.5001,-262.104 49.5001,-262.104"/>
</g>
</g>
</svg>
